<?xml version="1.0" encoding="UTF-8" standalone="no"?>
<svg
   xmlns:dc="http://purl.org/dc/elements/1.1/"
   xmlns:cc="http://creativecommons.org/ns#"
   xmlns:rdf="http://www.w3.org/1999/02/22-rdf-syntax-ns#"
   xmlns:svg="http://www.w3.org/2000/svg"
   xmlns="http://www.w3.org/2000/svg"
   xmlns:sodipodi="http://sodipodi.sourceforge.net/DTD/sodipodi-0.dtd"
   xmlns:inkscape="http://www.inkscape.org/namespaces/inkscape"
   sodipodi:docname="bendera.svg"
   inkscape:version="1.0 (1.0+r73+1)"
   id="svg8"
   version="1.1"
   viewBox="0 0 210 297"
   height="297mm"
   width="210mm">
  <defs
     id="defs2" />
  <sodipodi:namedview
     inkscape:window-maximized="1"
     inkscape:window-y="27"
     inkscape:window-x="0"
     inkscape:window-height="704"
     inkscape:window-width="1366"
     showguides="false"
     showgrid="false"
     inkscape:document-rotation="0"
     inkscape:current-layer="layer1"
     inkscape:document-units="mm"
     inkscape:cy="-201.80529"
     inkscape:cx="8.5384078"
     inkscape:zoom="0.35"
     inkscape:pageshadow="2"
     inkscape:pageopacity="0.0"
     borderopacity="1.0"
     bordercolor="#666666"
     pagecolor="#ffffff"
     id="base" />
  <metadata
     id="metadata5">
    <rdf:RDF>
      <cc:Work
         rdf:about="">
        <dc:format>image/svg+xml</dc:format>
        <dc:type
           rdf:resource="http://purl.org/dc/dcmitype/StillImage" />
        <dc:title></dc:title>
      </cc:Work>
    </rdf:RDF>
  </metadata>
  <g
     id="layer1"
     inkscape:groupmode="layer"
     inkscape:label="Layer 1">
    <g
       transform="translate(-1.373578,-213.81253)"
       id="g869">
      <path
         id="path860"
         style="opacity:1;fill:#ffffff;stroke:none;stroke-width:0;stroke-miterlimit:4;stroke-dasharray:none;stroke-opacity:1"
         d="m 670.89258,383.08008 c -2.04672,0.3672 -4.06173,0.83066 -6.13672,1.11328 -4.00329,0.54527 -8.04498,0.97909 -12.07227,1.47461 -4.02729,0.49552 -8.04006,1.05272 -11.98437,1.84765 -1.97215,0.39747 -3.92803,0.85479 -5.85938,1.39258 -1.93134,0.5378 -3.83767,1.15519 -5.71484,1.87696 -1.27525,0.49032 -2.64475,1.14304 -4.07422,1.91601 -1.42947,0.77297 -2.91881,1.66684 -4.43945,2.63867 -3.04129,1.94367 -6.20279,4.20107 -9.23047,6.4375 -3.02768,2.23644 -5.92198,4.4516 -8.43164,6.31055 -2.50966,1.85895 -4.63387,3.36261 -6.1211,4.17383 -4.83283,2.6361 -8.01359,4.30582 -10.41601,5.47461 -2.40243,1.16878 -4.02611,1.83632 -5.74414,2.46875 -1.71804,0.63242 -3.53088,1.22884 -6.31055,2.25586 -2.77967,1.02701 -6.52791,2.48533 -12.11523,4.83789 -4.44991,1.87364 -8.7494,4.13997 -12.99024,6.55273 -4.24083,2.41277 -8.42232,4.97048 -12.63086,7.42774 -4.20854,2.45725 -8.44581,4.8132 -12.79882,6.82031 -2.17651,1.00355 -4.38118,1.92048 -6.62696,2.71875 -2.24577,0.79827 -4.532,1.4786 -6.86914,2.00976 -4.31132,0.97984 -8.66887,1.87623 -13.0664,2.69532 -4.39754,0.81908 -8.83394,1.56017 -13.30665,2.23047 -8.9454,1.3406 -18.03119,2.3956 -27.21093,3.21289 -9.17975,0.81728 -18.45363,1.39738 -27.7793,1.78711 -9.32566,0.38972 -18.70277,0.58856 -28.08594,0.64648 -9.38316,0.0579 -18.77276,-0.025 -28.125,-0.20312 -9.35224,-0.17813 -18.66749,-0.45111 -27.90039,-0.76954 -18.4658,-0.63685 -36.6046,-1.45851 -54.0625,-2.08203 -4.86983,-0.17392 -8.62071,-0.0294 -11.79101,0.29688 -3.17031,0.3263 -5.75965,0.83446 -8.30274,1.39062 -2.54308,0.55616 -5.04113,1.16013 -8.02929,1.67578 -2.98817,0.51566 -6.4671,0.94365 -10.97266,1.14844 -8.14262,0.37011 -16.50256,0.39899 -24.84961,0.13281 -8.34705,-0.26617 -16.68091,-0.82767 -24.77148,-1.63671 -3.50523,-0.35052 -6.95998,-0.79923 -10.3711,-1.33594 -3.41112,-0.53672 -6.77781,-1.16075 -10.10547,-1.86524 -6.65532,-1.40898 -13.15567,-3.13592 -19.54101,-5.10546 -6.38535,-1.96955 -12.65689,-4.18172 -18.85742,-6.56446 -6.20054,-2.38273 -12.32881,-4.93545 -18.42969,-7.58398 -12.20176,-5.29707 -24.2894,-10.9791 -36.603518,-16.45508 -6.157057,-2.73799 -12.370703,-5.42469 -18.683593,-7.98633 -6.31289,-2.56164 -12.725414,-4.99842 -19.279297,-7.23633 -6.987575,-2.386 -14.013152,-4.63404 -21.074219,-6.7539 -7.061067,-2.11987 -14.157462,-4.11157 -21.283203,-5.98633 -7.12574054,-1.87476 -14.2812942,-3.63253 -21.462891,-5.2832 -7.181596,-1.65068 -14.388553,-3.19302 -21.617187,-4.64063 -7.228634,-1.44761 -14.479239,-2.79888 -21.746094,-4.06445 -7.266854,-1.26558 -14.551399,-2.44622 -21.847656,-3.55078 -14.592513,-2.20913 -29.235362,-4.11737 -43.892582,-5.8086 -7.26131,-0.83785 -14.52262,-1.54999 -21.78515,-2.14843 -7.26253,-0.59845 -14.52558,-1.08369 -21.78907,-1.46485 -7.26348,-0.38116 -14.52682,-0.65774 -21.79101,-0.84375 -7.26419,-0.18601 -14.52833,-0.27999 -21.79297,-0.29297 -14.52928,-0.026 -29.06029,0.27131 -43.58984,0.80469 -14.52955,0.53338 -29.05816,1.30305 -43.58594,2.21875 -14.52778,0.9157 -29.05415,1.97665 -43.57813,3.09766 -14.52397,1.121 -29.04632,2.30188 -43.56445,3.45117 -14.51813,1.14929 -29.03271,2.26701 -43.54297,3.26758 -13.0475,0.89969 -26.08933,1.65725 -39.1289,2.30078 -2.29241,57.25712 -11.09578,94.36532 -36.98633,168.14648 -14.44301,41.15868 -15.09195,44.28945 -16.35352,78.97266 -0.93649,25.74701 0.0482,44.25141 3.42774,64.46289 4.8455,28.97805 19.44575,85.25688 23.05078,88.85351 1.10128,1.09875 42.07131,1.92842 91.04492,1.84375 l 89.04297,-0.15429 61.42773,-22.25196 c 116.25948,-42.11217 156.482334,-50.53034 250.4628938,-52.41992 78.8714082,-1.58581 89.3120962,-0.23862 203.3105462,26.21875 43.49683,10.09497 93.62932,21.12731 111.40625,24.51758 l 32.32031,6.16406 51.96485,-8.71875 c 88.1455,-14.78914 100.47462,-15.93435 171.96484,-15.95703 76.31917,-0.0255 93.17721,2.28078 146.60352,20.05469 33.3496,11.09484 88.7756,38.40738 112.07812,55.23047 8.5824,6.19597 16.40005,11.37521 17.37305,11.50976 2.64589,0.36564 5.30778,-18.89251 5.3418,-38.66601 0.0403,-22.41615 -5.99014,-56.73181 -19.75586,-112.41211 -6.03599,-24.41477 -13.7477,-56.74932 -17.13672,-71.85352 -7.05827,-31.45784 -21.46635,-63.43859 -33.43555,-74.21875 -4.5168,-4.06809 -17.61218,-13.54116 -29.10156,-21.05078 -22.78621,-14.89334 -39.19587,-33.01727 -63.39649,-70.01953 -15.64977,-23.92826 -15.71875,-24.12981 -16.71484,-49.25195 -0.15133,-3.81689 -0.14154,-6.49151 -0.17578,-9.44336 z"
         transform="scale(0.26458333)" />
      <path
         id="path864"
         style="opacity:1;fill:#ff0000;stroke:none;stroke-width:0;stroke-miterlimit:4;stroke-dasharray:none;stroke-opacity:1"
         d="m -247.40234,17.210938 c -35.7756,1.218236 -72.44177,7.809574 -136.24219,20.667968 -62.41584,12.57936 -65.43472,12.91425 -103.77735,11.492188 -29.33336,-1.08793 -39.11336,-0.613277 -38.01953,1.845703 36.50725,82.068193 59.12423,192.757703 59.34571,290.453123 0.0352,15.52879 -0.26192,29.02854 -0.77539,41.85352 13.03957,-0.64353 26.0814,-1.40109 39.1289,-2.30078 14.51026,-1.00057 29.02484,-2.11829 43.54297,-3.26758 14.51813,-1.14929 29.04048,-2.33017 43.56445,-3.45117 14.52398,-1.12101 29.05035,-2.18196 43.57813,-3.09766 14.52778,-0.9157 29.05639,-1.68537 43.58594,-2.21875 14.52955,-0.53338 29.06056,-0.83065 43.58984,-0.80469 7.26464,0.013 14.52878,0.10696 21.79297,0.29297 7.26419,0.18601 14.52753,0.46259 21.79101,0.84375 7.26349,0.38116 14.52654,0.8664 21.78907,1.46485 7.26253,0.59844 14.52384,1.31058 21.78515,2.14843 14.65722,1.69123 29.300069,3.59947 43.892582,5.8086 7.296257,1.10456 14.580802,2.2852 21.847656,3.55078 7.266855,1.26557 14.51746,2.61684 21.746094,4.06445 7.228634,1.44761 14.435591,2.98995 21.617187,4.64063 7.1815968,1.65067 14.33715046,3.40844 21.462891,5.2832 7.125741,1.87476 14.222136,3.86646 21.283203,5.98633 7.061067,2.11986 14.086644,4.3679 21.074219,6.7539 6.553883,2.23791 12.966407,4.67469 19.279297,7.23633 6.31289,2.56164 12.526536,5.24834 18.683593,7.98633 12.314118,5.47598 24.401758,11.15801 36.603518,16.45508 6.10088,2.64853 12.22915,5.20125 18.42969,7.58398 6.20053,2.38274 12.47207,4.59491 18.85742,6.56446 6.38534,1.96954 12.88569,3.69648 19.54101,5.10546 3.32766,0.70449 6.69435,1.32852 10.10547,1.86524 3.41112,0.53671 6.86587,0.98542 10.3711,1.33594 8.09057,0.80904 16.42443,1.37054 24.77148,1.63671 8.34705,0.26618 16.70699,0.2373 24.84961,-0.13281 4.50556,-0.20479 7.98449,-0.63278 10.97266,-1.14844 2.98816,-0.51565 5.48621,-1.11962 8.02929,-1.67578 2.54309,-0.55616 5.13243,-1.06432 8.30274,-1.39062 3.1703,-0.3263 6.92118,-0.4708 11.79101,-0.29688 17.4579,0.62352 35.5967,1.44518 54.0625,2.08203 9.2329,0.31843 18.54815,0.59141 27.90039,0.76954 9.35224,0.17813 18.74184,0.26104 28.125,0.20312 9.38317,-0.0579 18.76028,-0.25676 28.08594,-0.64648 9.32567,-0.38973 18.59955,-0.96983 27.7793,-1.78711 9.17974,-0.81729 18.26553,-1.87229 27.21093,-3.21289 4.47271,-0.6703 8.90911,-1.41139 13.30665,-2.23047 4.39753,-0.81909 8.75508,-1.71548 13.0664,-2.69532 2.33714,-0.53116 4.62337,-1.21149 6.86914,-2.00976 2.24578,-0.79827 4.45045,-1.7152 6.62696,-2.71875 4.35301,-2.00711 8.59028,-4.36306 12.79882,-6.82031 4.20854,-2.45726 8.39003,-5.01497 12.63086,-7.42774 4.24084,-2.41276 8.54033,-4.67909 12.99024,-6.55273 5.58732,-2.35256 9.33556,-3.81088 12.11523,-4.83789 2.77967,-1.02702 4.59251,-1.62344 6.31055,-2.25586 1.71803,-0.63243 3.34171,-1.29997 5.74414,-2.46875 2.40242,-1.16879 5.58318,-2.83851 10.41601,-5.47461 1.48723,-0.81122 3.61144,-2.31488 6.1211,-4.17383 2.50966,-1.85895 5.40396,-4.07411 8.43164,-6.31055 3.02768,-2.23643 6.18918,-4.49383 9.23047,-6.4375 1.52064,-0.97183 3.00998,-1.8657 4.43945,-2.63867 1.42947,-0.77297 2.79897,-1.42569 4.07422,-1.91601 1.87717,-0.72177 3.7835,-1.33916 5.71484,-1.87696 1.93135,-0.53779 3.88723,-0.99511 5.85938,-1.39258 3.94431,-0.79493 7.95708,-1.35213 11.98437,-1.84765 4.02729,-0.49552 8.06898,-0.92934 12.07227,-1.47461 2.07499,-0.28262 4.09,-0.74608 6.13672,-1.11328 -0.17971,-15.49305 1.65451,-22.39065 11.21289,-47.88281 6.61969,-17.65474 16.69566,-49.45566 22.39258,-70.66993 9.53711,-35.51511 10.33431,-41.5151 10.06445,-75.71484 C 714.06969,126.35996 703.22109,60.459424 690.80859,44.527344 l -5.5664,-7.142578 -31.39453,10.68164 C 594.64268,68.209406 589.38593,68.641222 402.07031,68.732422 243.52454,68.809611 232.79574,68.487174 193.49805,62.470703 143.60144,54.831533 110.23007,51.367698 47.783203,47.347656 -8.3172319,43.736178 -26.552675,41.676126 -116.50195,28.783203 c -60.2401,-8.63454 -95.1248,-12.790502 -130.90039,-11.572265 z"
         transform="scale(0.26458333)" />
    </g>
  </g>
</svg>
